# xmcd
#
# Track frame offsets:
#	150
#	9997
#	21112
#	33222
#	46907
#	55302
#	75762
#	92385
#	103300
#	114235
#	124445
#	138672
#	145705
#	153917
#	167642
#	193017
#	214365
#	227747
#
# Disc length: 3283
#
# Revision: 1
# Processed by: cddbd v1.5.1PL0 Copyright (c) Steve Scherf et al.
# Submitted via: CDex 1.51
# Normalized: r0:DSETVAR1,TDELIM( - ),TSWAP
#
DISCID=e50cd112
DTITLE=Various Artist - The Best Of Gene Norman's Blues Jubilees
DYEAR=1999
DGENRE=Blues
TTITLE0=Dinah Washington - Cool Kind Papa
TTITLE1=Dinah Washington - It Isn't Fair
TTITLE2=Dinah Washington - Baby, Get Lost
TTITLE3=Dinah Washington - I Wanna be Loved
TTITLE4=Dinah Washington - Fast Movin' Mama
TTITLE5=Jimmy Witherspoon - Ain't Nobody's Business
TTITLE6=Jimmy Witherspoon - No Rollin' Blues
TTITLE7=Jimmy Witherspoon - Big Fine Girl
TTITLE8=Jimmy Witherspoon - New Orleans Woman
TTITLE9=Jimmy Witherspoon - I Gotta Go
TTITLE10=Helen Humes - Million Dollar Secret
TTITLE11=Helen Humes - E Baba Le Ba
TTITLE12=Helen Humes - I'm Gonna Let Him Ride
TTITLE13=Helen Humes - If I Could Be With You
TTITLE14=Big Joe Turner - Flip, Flop and Fly
TTITLE15=Big Joe Turner - Three O'Clock in the Morning
TTITLE16=Big Joe Turner - Up, Up and Away
TTITLE17=Big Joe Turner - Blues
EXTD=YEAR: 1999
EXTT0=
EXTT1=
EXTT2=
EXTT3=
EXTT4=
EXTT5=
EXTT6=
EXTT7=
EXTT8=
EXTT9=
EXTT10=
EXTT11=
EXTT12=
EXTT13=
EXTT14=
EXTT15=
EXTT16=
EXTT17=
PLAYORDER=
